<?xml version="1.0" standalone="no"?>
<!DOCTYPE svg PUBLIC "-//W3C//DTD SVG 20010904//EN"
 "http://www.w3.org/TR/2001/REC-SVG-20010904/DTD/svg10.dtd">
<svg version="1.0" xmlns="http://www.w3.org/2000/svg"
 width="96.000000pt" height="96.000000pt" viewBox="0 0 96.000000 96.000000"
 preserveAspectRatio="xMidYMid meet">
<metadata>
Created by potrace 1.11, written by Peter Selinger 2001-2013
</metadata>
<g transform="translate(0.000000,96.000000) scale(0.100000,-0.100000)"
fill="#000000" stroke="none">
<path d="M347 865 c-49 -13 -227 -94 -227 -103 0 -3 7 -14 16 -23 15 -17 15
-21 1 -51 -43 -93 -46 -177 -10 -282 16 -43 35 -82 43 -87 8 -4 76 -26 150
-49 187 -58 368 -136 428 -183 26 -21 85 73 105 169 8 38 8 57 1 62 -6 4 -11
40 -11 82 0 123 -12 191 -34 197 -10 3 -19 11 -19 18 0 29 -64 136 -102 170
-88 80 -223 112 -341 80z"/>
</g>
</svg>
